<?xml version="1.0" encoding="UTF-8" standalone="no"?>
<!-- Created with Inkscape (http://www.inkscape.org/) -->

<svg
   width="360"
   height="200"
   viewBox="0 0 95.25 52.916666"
   version="1.1"
   id="svg1"
   xmlns="http://www.w3.org/2000/svg"
   xmlns:svg="http://www.w3.org/2000/svg">
  <defs
     id="defs1" />
  <g
     id="g1887">
    <path
       style="font-weight:600;font-size:50.8px;font-family:'URW Gothic';-inkscape-font-specification:'URW Gothic Semi-Bold';fill:#059bda;stroke-width:0.264583;fill-opacity:1"
       d="m 9.702848,13.707533 h 6.7564 v -6.35 h -6.7564 z"
       id="path1794" />
    <path
       style="font-weight:600;font-size:50.8px;font-family:'URW Gothic';-inkscape-font-specification:'URW Gothic Semi-Bold';fill:#023760;stroke-width:0.264583"
       d="m 9.702848,44.898732 h 6.7564 V 16.755533 h -6.7564 z"
       id="path1" />
    <path
       d="m 21.894836,44.898732 h 6.7564 V 7.357533 h -6.7564 z"
       style="font-weight:600;font-size:50.8px;font-family:'URW Gothic';-inkscape-font-specification:'URW Gothic Semi-Bold';fill:#023760;stroke-width:0.264583"
       id="path2" />
    <path
       style="font-weight:600;font-size:50.8px;font-family:'URW Gothic';-inkscape-font-specification:'URW Gothic Semi-Bold';fill:#059bda;stroke-width:0.264583;fill-opacity:1"
       d="m 34.086824,13.707533 h 6.7564 v -6.35 h -6.7564 z"
       id="path1816" />
    <path
       style="font-weight:600;font-size:50.8px;font-family:'URW Gothic';-inkscape-font-specification:'URW Gothic Semi-Bold';fill:#023760;stroke-width:0.264583"
       d="m 34.086824,44.898732 h 6.7564 V 16.755533 h -6.7564 z"
       id="path3" />
    <path
       d="m 46.482014,44.898732 h 6.7564 V 22.902333 h 3.81 v -5.6388 h -3.81 c 0.0508,-2.5908 0.9144,-3.4036 3.6068,-3.4036 h 0.6096 v -6.4008 c -0.8128,-0.1016 -1.1684,-0.1016 -1.6764,-0.1016 -2.9464,0 -5.334,1.0668 -7.0612,3.1496 -1.3716,1.6256 -1.8796,3.2512 -2.2352,6.7564 h -2.4384 v 5.6388 h 2.4384 z"
       style="font-weight:600;font-size:50.8px;font-family:'URW Gothic';-inkscape-font-specification:'URW Gothic Semi-Bold';fill:#023760;stroke-width:0.264583"
       id="path4" />
    <path
       d="m 85.547151,16.755533 h -6.756399 v 13.258799 c 0,3.7592 -0.254,5.5372 -1.0668,6.7564 -0.9652,1.6764 -2.8448,2.5908 -5.1308,2.5908 -1.7272,0 -3.048,-0.5588 -3.9624,-1.778 -0.9652,-1.2192 -1.3716,-3.2512 -1.3716,-7.0612 V 16.755533 h -6.7564 v 15.087599 c 0,4.7752 0.5588,7.2644 2.1336,9.5504 1.8796,2.6924 4.8768,4.1656 8.5852,4.1656 3.4036,0 5.4864,-0.8636 8.0772,-3.3528 v 2.6924 h 6.248399 z"
       style="font-weight:600;font-size:50.8px;font-family:'URW Gothic';-inkscape-font-specification:'URW Gothic Semi-Bold';fill:#023760;stroke-width:0.264583"
       id="path5" />
  </g>
</svg>
